<?xml version="1.0" standalone="no"?>
<!DOCTYPE svg PUBLIC "-//W3C//DTD SVG 20010904//EN"
 "http://www.w3.org/TR/2001/REC-SVG-20010904/DTD/svg10.dtd">
<svg version="1.0" xmlns="http://www.w3.org/2000/svg"
 width="800.000000pt" height="800.000000pt" viewBox="0 0 800.000000 800.000000"
 preserveAspectRatio="xMidYMid meet">

<g transform="translate(0.000000,800.000000) scale(0.100000,-0.100000)"
fill="#000000" stroke="none">
<path d="M1935 6989 c-365 -30 -650 -210 -809 -510 -70 -132 -101 -246 -116
-434 -13 -161 -13 -3929 0 -4090 15 -188 45 -301 116 -435 132 -251 365 -424
659 -489 123 -27 357 -31 2215 -31 1858 0 2092 4 2215 31 294 65 527 238 659
489 71 134 101 247 116 435 13 161 13 3929 0 4090 -15 186 -46 303 -114 432
-137 257 -364 426 -661 492 -27 6 -104 16 -170 21 -147 12 -3965 11 -4110 -1z
m4118 -669 c89 -13 133 -37 194 -104 37 -41 54 -69 64 -108 21 -79 21 -4137 0
-4216 -10 -39 -27 -67 -64 -108 -63 -69 -107 -92 -205 -105 -51 -6 -763 -9
-2097 -7 -1689 3 -2027 6 -2065 18 -32 9 -64 32 -111 79 -55 55 -68 75 -80
121 -21 81 -21 4138 0 4218 10 40 26 67 67 112 62 66 100 87 181 99 84 12
4032 13 4116 1z"/>
</g>
</svg>
